<?xml version="1.0" standalone="no"?>
<!DOCTYPE svg PUBLIC "-//W3C//DTD SVG 20010904//EN"
 "http://www.w3.org/TR/2001/REC-SVG-20010904/DTD/svg10.dtd">
<svg version="1.0" xmlns="http://www.w3.org/2000/svg"
 width="252.000000pt" height="252.000000pt" viewBox="0 0 252.000000 252.000000"
 preserveAspectRatio="xMidYMid meet">

<g transform="translate(0.000000,252.000000) scale(0.100000,-0.100000)"
fill="#000000" stroke="none">
<path d="M1095 2479 c-469 -52 -884 -363 -1014 -759 -160 -486 75 -994 574
-1243 170 -84 336 -126 535 -133 74 -3 145 -7 156 -9 12 -3 91 -64 175 -137
85 -73 170 -140 189 -150 21 -11 56 -18 90 -18 72 0 139 39 172 102 21 39 23
57 23 203 1 88 2 172 3 187 2 20 25 45 101 108 259 214 385 471 385 785 0 123
-11 191 -46 299 -166 506 -737 831 -1343 765z m440 -288 c316 -84 553 -285
649 -550 39 -107 50 -195 37 -296 -27 -218 -141 -402 -342 -552 -61 -44 -89
-72 -90 -87 -1 -11 -2 -97 -3 -189 -1 -154 -3 -170 -20 -183 -11 -8 -26 -14
-35 -14 -8 0 -69 53 -135 118 -193 187 -153 167 -334 168 -175 1 -277 18 -416
72 -259 101 -465 318 -532 562 -27 99 -25 264 4 360 83 268 305 479 602 572
123 39 197 48 370 44 127 -3 183 -9 245 -25z"/>
</g>
</svg>
