<?xml version="1.0" standalone="no"?>
<!DOCTYPE svg PUBLIC "-//W3C//DTD SVG 20010904//EN"
 "http://www.w3.org/TR/2001/REC-SVG-20010904/DTD/svg10.dtd">
<svg version="1.0" xmlns="http://www.w3.org/2000/svg"
 width="252.000000pt" height="252.000000pt" viewBox="0 0 252.000000 252.000000"
 preserveAspectRatio="xMidYMid meet">

<g transform="translate(0.000000,252.000000) scale(0.100000,-0.100000)"
fill="#000000" stroke="none">
<path d="M1162 2478 c-258 -27 -500 -216 -603 -469 -46 -113 -59 -213 -59
-459 0 -140 -4 -229 -12 -251 -21 -62 -59 -107 -153 -184 -100 -81 -141 -128
-161 -184 -19 -53 -18 -256 2 -313 21 -63 74 -122 140 -154 55 -27 59 -27 257
-28 l202 -1 7 -56 c10 -79 46 -155 105 -219 89 -98 198 -140 359 -140 164 0
265 32 352 114 62 58 102 132 122 226 l16 75 210 5 c232 6 254 11 322 78 62
63 76 110 77 252 0 189 -9 205 -222 387 -42 36 -70 71 -90 110 l-28 58 -6 280
c-7 308 -10 328 -76 460 -42 84 -87 146 -145 201 -179 169 -379 238 -616 212z
m213 -273 c117 -31 220 -106 287 -209 66 -102 70 -128 78 -441 l6 -280 32 -80
c40 -101 102 -179 215 -270 l87 -70 0 -78 0 -77 -827 2 -828 3 -3 72 -3 71 73
58 c103 82 170 154 205 221 54 102 62 153 66 433 4 231 6 261 26 320 85 247
340 389 586 325z m83 -1792 c5 -32 -24 -81 -61 -103 -27 -17 -51 -20 -143 -20
-99 0 -115 2 -145 23 -40 26 -75 86 -66 111 6 15 27 16 209 14 200 -3 203 -3
206 -25z"/>
</g>
</svg>
