<?xml version="1.0" standalone="no"?>
<!DOCTYPE svg PUBLIC "-//W3C//DTD SVG 20010904//EN"
 "http://www.w3.org/TR/2001/REC-SVG-20010904/DTD/svg10.dtd">
<svg version="1.0" xmlns="http://www.w3.org/2000/svg"
 width="252.000000pt" height="252.000000pt" viewBox="0 0 252.000000 252.000000"
 preserveAspectRatio="xMidYMid meet">

<g transform="translate(0.000000,252.000000) scale(0.100000,-0.100000)"
fill="#000000" stroke="none">
<path d="M1145 2470 c-166 -30 -320 -130 -411 -268 -84 -126 -121 -308 -90
-451 100 -470 664 -649 1010 -321 200 190 249 459 129 710 -66 139 -222 267
-382 314 -68 20 -191 28 -256 16z m247 -284 c73 -35 150 -117 177 -191 15 -39
21 -79 21 -134 0 -70 -4 -86 -36 -149 -129 -259 -488 -265 -624 -10 -29 54
-35 75 -38 148 -3 69 0 96 17 141 22 59 80 133 132 170 93 66 243 77 351 25z"/>
<path d="M692 1014 c-139 -37 -278 -148 -340 -270 -54 -108 -62 -158 -62 -406
0 -217 1 -226 23 -259 13 -19 39 -40 61 -48 33 -13 44 -13 79 0 78 27 81 39
87 302 5 229 5 233 33 289 28 57 70 98 137 134 33 18 65 19 565 19 l530 0 42
-23 c58 -30 111 -86 137 -141 19 -41 21 -70 26 -282 5 -219 7 -239 25 -259 60
-68 170 -57 211 21 17 35 20 411 3 505 -35 197 -213 382 -407 423 -84 18
-1081 14 -1150 -5z"/>
</g>
</svg>
